<svg width="17" height="20" viewBox="0 0 17 20" fill="none" xmlns="http://www.w3.org/2000/svg">
<path fill-rule="evenodd" clip-rule="evenodd" d="M13.6049 10.6289C13.6169 9.06988 14.4329 7.63288 15.7649 6.81988C14.9249 5.61288 13.5699 4.87088 12.1049 4.81988C10.5419 4.65988 9.10486 5.72988 8.27286 5.72988C7.44486 5.72988 6.27286 4.83988 4.97186 4.85888C3.24586 4.91788 1.67486 5.87888 0.834862 7.39088C-0.926138 10.4489 0.381862 14.9999 2.14386 17.4689C2.94486 18.6799 3.94486 20.0509 5.26486 19.9999C6.58486 19.9489 7.01486 19.1799 8.54286 19.1799C10.0739 19.1799 10.5419 19.9999 11.8429 19.9689C13.1439 19.9419 14.0659 18.7309 14.9059 17.5199C15.4999 16.6409 15.9639 15.6799 16.2849 14.6719C14.6639 13.9809 13.6089 12.3909 13.6049 10.6289ZM11.0849 3.19088C11.8469 2.30888 12.2299 1.15988 12.1439 -0.00012207C10.9839 0.0938779 9.90586 0.640878 9.14386 1.51988C8.40586 2.37088 8.04586 3.48788 8.14386 4.60888C9.29286 4.62088 10.3779 4.09388 11.0849 3.19088Z" fill="#1D1D1B"/>
</svg>
