<svg width="32" height="32" viewBox="0 0 32 32" fill="none" xmlns="http://www.w3.org/2000/svg">
<path d="M26.0822 9.33333C26.3872 7.59364 25.0484 6 23.2822 6H8.71714C6.95094 6 5.61226 7.59364 5.91708 9.33333" stroke="#1E1E1E" stroke-opacity="0.6" stroke-width="1.5"/>
<path d="M23.3332 6.00008C23.3711 5.65464 23.39 5.48188 23.3903 5.33921C23.3933 3.97437 22.3652 2.8276 21.0081 2.68197C20.8663 2.66675 20.6925 2.66675 20.3451 2.66675H11.6546C11.3071 2.66675 11.1334 2.66675 10.9915 2.68197C9.63445 2.8276 8.60641 3.97437 8.60938 5.3392C8.60969 5.48188 8.62861 5.65461 8.66643 6.00008" stroke="#1E1E1E" stroke-opacity="0.6" stroke-width="1.5"/>
<path d="M20 24H12" stroke="#1E1E1E" stroke-opacity="0.6" stroke-width="1.5" stroke-linecap="round"/>
<path d="M3.17797 18.3906C2.58327 14.1725 2.28592 12.0635 3.54972 10.6984C4.81352 9.33325 7.0634 9.33325 11.5631 9.33325H20.4368C24.9365 9.33325 27.1864 9.33325 28.4502 10.6984C29.714 12.0635 29.4166 14.1725 28.822 18.3906L28.258 22.3906C27.7916 25.6985 27.5585 27.3523 26.3622 28.3429C25.166 29.3333 23.4016 29.3333 19.8728 29.3333H12.1271C8.59837 29.3333 6.834 29.3333 5.63775 28.3429C4.44149 27.3523 4.20831 25.6985 3.74193 22.3906L3.17797 18.3906Z" stroke="#1E1E1E" stroke-opacity="0.6" stroke-width="1.5"/>
</svg>
