<svg width="32" height="32" viewBox="0 0 32 32" fill="none" xmlns="http://www.w3.org/2000/svg">
<path d="M29.3333 16.2719V18.3001C29.3333 23.5011 29.3333 26.1018 27.7712 27.7175C26.2092 29.3334 23.6949 29.3334 18.6666 29.3334H13.3333C8.30497 29.3334 5.79083 29.3334 4.22872 27.7175C2.66663 26.1018 2.66663 23.5011 2.66663 18.3001V16.2719C2.66663 13.2207 2.66663 11.6951 3.35889 10.4304C4.05116 9.16569 5.31589 8.38076 7.84533 6.81092L10.512 5.15591C13.1858 3.49647 14.5228 2.66675 16 2.66675C17.4772 2.66675 18.8141 3.49647 21.488 5.15591L24.1546 6.81091C26.6841 8.38076 27.9488 9.16569 28.641 10.4304" fill="#1E1E1E" fill-opacity="0.02"/>
<path d="M29.3333 16.2719V18.3001C29.3333 23.5011 29.3333 26.1018 27.7712 27.7175C26.2092 29.3334 23.6949 29.3334 18.6666 29.3334H13.3333C8.30497 29.3334 5.79083 29.3334 4.22872 27.7175C2.66663 26.1018 2.66663 23.5011 2.66663 18.3001V16.2719C2.66663 13.2207 2.66663 11.6951 3.35889 10.4304C4.05116 9.16569 5.31589 8.38076 7.84533 6.81092L10.512 5.15591C13.1858 3.49647 14.5228 2.66675 16 2.66675C17.4772 2.66675 18.8141 3.49647 21.488 5.15591L24.1546 6.81091C26.6841 8.38076 27.9488 9.16569 28.641 10.4304" stroke="#1E1E1E" stroke-opacity="0.6" stroke-width="1.5" stroke-linecap="round"/>
<path d="M20 24H12" stroke="#1E1E1E" stroke-opacity="0.6" stroke-width="1.5" stroke-linecap="round"/>
</svg>
