<svg width="32" height="32" viewBox="0 0 32 32" fill="none" xmlns="http://www.w3.org/2000/svg">
<path fill-rule="evenodd" clip-rule="evenodd" d="M17.3333 0H4C2.94011 0.00316545 1.92453 0.425609 1.17507 1.17507C0.425609 1.92453 0.00316545 2.94011 0 4L0 22.6533C0.00316545 23.7132 0.425609 24.7288 1.17507 25.4783C1.92453 26.2277 2.94011 26.6502 4 26.6533H17.3333C18.3932 26.6502 19.4088 26.2277 20.1583 25.4783C20.9077 24.7288 21.3302 23.7132 21.3333 22.6533V4C21.3302 2.94011 20.9077 1.92453 20.1583 1.17507C19.4088 0.425609 18.3932 0.00316545 17.3333 0ZM18.6667 22.6533C18.6612 23.0052 18.5189 23.3412 18.2701 23.5901C18.0212 23.8389 17.6852 23.9812 17.3333 23.9867H4C3.64809 23.9812 3.31214 23.8389 3.06327 23.5901C2.81441 23.3412 2.67217 23.0052 2.66667 22.6533V4C2.67217 3.64809 2.81441 3.31214 3.06327 3.06327C3.31214 2.81441 3.64809 2.67217 4 2.66667H17.3333C18.0653 2.67867 18.6547 3.268 18.6667 4V22.6533Z" fill="#1E1E1E" fill-opacity="0.6"/>
<path fill-rule="evenodd" clip-rule="evenodd" d="M26.6667 9.33333V28C26.6635 29.0599 26.2411 30.0755 25.4916 30.8249C24.7422 31.5744 23.7266 31.9968 22.6667 32H6.66671C6.31309 32 5.97395 31.8595 5.7239 31.6095C5.47385 31.3594 5.33337 31.0203 5.33337 30.6667C5.33337 30.313 5.47385 29.9739 5.7239 29.7239C5.97395 29.4738 6.31309 29.3333 6.66671 29.3333H22.6667C23.0186 29.3278 23.3546 29.1856 23.6034 28.9367C23.8523 28.6879 23.9945 28.3519 24 28V9.33333C24 8.97971 24.1405 8.64057 24.3906 8.39052C24.6406 8.14048 24.9798 8 25.3334 8C25.687 8 26.0261 8.14048 26.2762 8.39052C26.5262 8.64057 26.6667 8.97971 26.6667 9.33333Z" fill="#1E1E1E" fill-opacity="0.6"/>
<path d="M10.6667 21.3334C11.4031 21.3334 12 20.7365 12 20.0001C12 19.2637 11.4031 18.6667 10.6667 18.6667C9.93033 18.6667 9.33337 19.2637 9.33337 20.0001C9.33337 20.7365 9.93033 21.3334 10.6667 21.3334Z" fill="#1E1E1E" fill-opacity="0.6"/>
<path fill-rule="evenodd" clip-rule="evenodd" d="M16 10.6666C16.001 11.8487 15.6084 12.9976 14.8841 13.9319C14.1598 14.8662 13.1451 15.5328 12 15.8266V15.9999C12 16.3535 11.8596 16.6927 11.6095 16.9427C11.3595 17.1928 11.0203 17.3333 10.6667 17.3333C10.3131 17.3333 9.97395 17.1928 9.7239 16.9427C9.47385 16.6927 9.33337 16.3535 9.33337 15.9999V14.6666C9.33337 14.313 9.47385 13.9738 9.7239 13.7238C9.97395 13.4737 10.3131 13.3333 10.6667 13.3333C11.1941 13.3333 11.7097 13.1769 12.1482 12.8838C12.5868 12.5908 12.9286 12.1743 13.1304 11.6871C13.3322 11.1998 13.385 10.6636 13.2821 10.1463C13.1792 9.62906 12.9253 9.15391 12.5523 8.78097C12.1794 8.40803 11.7042 8.15405 11.1869 8.05116C10.6697 7.94826 10.1335 8.00107 9.64622 8.20291C9.15895 8.40474 8.74247 8.74653 8.44946 9.18506C8.15644 9.6236 8.00004 10.1392 8.00004 10.6666C8.00004 11.0202 7.85956 11.3593 7.60952 11.6094C7.35947 11.8594 7.02033 11.9999 6.66671 11.9999C6.31309 11.9999 5.97395 11.8594 5.7239 11.6094C5.47385 11.3593 5.33337 11.0202 5.33337 10.6666C5.33337 9.2521 5.89528 7.89554 6.89547 6.89535C7.89566 5.89515 9.25222 5.33325 10.6667 5.33325C12.0812 5.33325 13.4377 5.89515 14.4379 6.89535C15.4381 7.89554 16 9.2521 16 10.6666Z" fill="#1E1E1E" fill-opacity="0.6"/>
</svg>
