<svg width="30" height="30" viewBox="0 0 30 30" fill="none" xmlns="http://www.w3.org/2000/svg">
<path d="M28.3332 15.2719V17.3001C28.3332 22.5011 28.3332 25.1018 26.771 26.7175C25.209 28.3334 22.6948 28.3334 17.6665 28.3334H12.3332C7.30485 28.3334 4.7907 28.3334 3.2286 26.7175C1.6665 25.1018 1.6665 22.5011 1.6665 17.3001V15.2719C1.6665 12.2207 1.6665 10.6951 2.35877 9.4304C3.05104 8.16569 4.31577 7.38076 6.84521 5.81092L9.51188 4.15591C12.1857 2.49647 13.5226 1.66675 14.9998 1.66675C16.477 1.66675 17.814 2.49647 20.4878 4.15591L23.1545 5.81091C25.684 7.38076 26.9486 8.16569 27.6409 9.4304" stroke="#FF586E" stroke-width="1.5" stroke-linecap="round"/>
</svg>
