<svg width="19" height="15" viewBox="0 0 19 15" fill="none" xmlns="http://www.w3.org/2000/svg">
<path d="M19 3.72V13.2857C19 14.1659 18.2021 14.88 17.2188 14.88H1.78125C0.797852 14.88 0 14.1659 0 13.2857V3.72C0 2.83982 0.797852 2.12571 1.78125 2.12571H5.04688L5.50332 1.03296C5.76309 0.411857 6.42734 0 7.16953 0H11.8268C12.5689 0 13.2332 0.411857 13.493 1.03296L13.9531 2.12571H17.2188C18.2021 2.12571 19 2.83982 19 3.72ZM13.9531 8.50286C13.9531 6.30407 11.9566 4.51714 9.5 4.51714C7.04336 4.51714 5.04688 6.30407 5.04688 8.50286C5.04688 10.7016 7.04336 12.4886 9.5 12.4886C11.9566 12.4886 13.9531 10.7016 13.9531 8.50286ZM12.7656 8.50286C12.7656 10.1138 11.2998 11.4257 9.5 11.4257C7.7002 11.4257 6.23438 10.1138 6.23438 8.50286C6.23438 6.89196 7.7002 5.58 9.5 5.58C11.2998 5.58 12.7656 6.89196 12.7656 8.50286Z" fill="white"/>
</svg>
