<svg width="16" height="12" viewBox="0 0 16 12" fill="none" xmlns="http://www.w3.org/2000/svg">
<path d="M2.27537 3.49325H13.7621C14.5282 3.49489 15.2709 3.67348 15.8695 4V3.57433C15.8695 3.10305 15.5953 2.65106 15.1073 2.31781C14.6194 1.98456 13.9575 1.79734 13.2674 1.79734H9.4187L8.95369 0.925737C8.82159 0.653868 8.5664 0.417698 8.22496 0.25132C7.88352 0.0849411 7.4735 -0.00303886 7.05408 8.01546e-05H2.81953C2.47531 6.48607e-05 2.1345 0.0466909 1.81685 0.137258C1.4992 0.227825 1.21103 0.360533 0.96901 0.527695C0.726993 0.694857 0.535948 0.89315 0.406941 1.11109C0.277934 1.32903 0.213528 1.56228 0.217454 1.79734V3.96622C0.809756 3.65979 1.5323 3.49373 2.27537 3.49325Z" fill="url(#paint0_linear_4_2069)"/>
<path d="M13.7621 5.00093H2.27537C1.81859 4.99213 1.3704 5.09315 0.998946 5.28862C0.627489 5.48409 0.353084 5.76332 0.217454 6.08386V10.0667C0.213528 10.3196 0.277934 10.5705 0.406941 10.8049C0.535948 11.0393 0.726993 11.2526 0.96901 11.4325C1.21103 11.6123 1.4992 11.755 1.81685 11.8524C2.1345 11.9499 2.47531 12 2.81953 12H13.2674C13.9575 12 14.6194 11.7986 15.1073 11.4401C15.5953 11.0817 15.8695 10.5955 15.8695 10.0885V6.33824C15.8124 5.96122 15.5636 5.61395 15.1728 5.36597C14.782 5.118 14.2782 4.98761 13.7621 5.00093Z" fill="url(#paint1_linear_4_2069)"/>
<defs>
<linearGradient id="paint0_linear_4_2069" x1="8.04338" y1="-1.31348e-07" x2="9.24166" y2="17.8939" gradientUnits="userSpaceOnUse">
<stop stop-color="white"/>
<stop offset="1" stop-color="#A8A7AD"/>
</linearGradient>
<linearGradient id="paint1_linear_4_2069" x1="8.04338" y1="5" x2="11.6796" y2="36.0286" gradientUnits="userSpaceOnUse">
<stop stop-color="white"/>
<stop offset="1" stop-color="#A8A7AD"/>
</linearGradient>
</defs>
</svg>
