<svg width="21" height="13" viewBox="0 0 21 13" fill="none" xmlns="http://www.w3.org/2000/svg">
<path d="M5.51245 7.11808C5.82332 6.89938 6.22989 6.77804 6.65181 6.77804C7.07373 6.77804 7.4803 6.89938 7.79117 7.11808L10.1017 8.74321L14.7651 5.36294C15.0795 5.14311 15.4896 5.02124 15.9151 5.02124C16.3405 5.02124 16.7507 5.14311 17.065 5.36294L20.4778 7.71125V2.13705C20.4792 1.85679 20.4084 1.57908 20.2695 1.31985C20.1306 1.06062 19.9262 0.824967 19.6682 0.626417C19.4102 0.427867 19.1037 0.270325 18.7661 0.162828C18.4285 0.0553323 18.0665 -2.04135e-06 17.7009 0H3.68948C3.32392 -2.04135e-06 2.96196 0.0553323 2.62436 0.162828C2.28677 0.270325 1.98018 0.427867 1.72218 0.626417C1.46419 0.824967 1.25987 1.06062 1.12094 1.31985C0.982019 1.57908 0.911223 1.85679 0.912618 2.13705V9.89706C0.912618 10.0027 0.912618 10.1002 0.912618 10.2058L5.51245 7.11808ZM9.38097 1.72264C9.81908 1.72264 10.2474 1.82224 10.6116 2.00885C10.9759 2.19546 11.2598 2.46069 11.4275 2.77101C11.5951 3.08132 11.639 3.42279 11.5535 3.75222C11.4681 4.08165 11.2571 4.38425 10.9473 4.62176C10.6375 4.85926 10.2428 5.02101 9.81312 5.08653C9.38343 5.15206 8.93804 5.11843 8.53328 4.98989C8.12852 4.86136 7.78256 4.64369 7.53916 4.36441C7.29576 4.08513 7.16585 3.75679 7.16585 3.4209C7.16863 2.97115 7.40291 2.54043 7.81772 2.22241C8.23254 1.90439 8.79434 1.72478 9.38097 1.72264Z" fill="url(#paint0_linear_4_2083)"/>
<path d="M9.38127 4.14412C9.56784 4.14412 9.75021 4.10171 9.90533 4.02224C10.0605 3.94278 10.1814 3.82983 10.2528 3.69769C10.3241 3.56554 10.3428 3.42014 10.3064 3.27985C10.27 3.13957 10.1802 3.01071 10.0483 2.90957C9.91635 2.80843 9.74828 2.73955 9.5653 2.71165C9.38232 2.68375 9.19266 2.69807 9.02029 2.7528C8.84793 2.80754 8.70061 2.90023 8.59696 3.01916C8.49331 3.13809 8.43799 3.27791 8.43799 3.42094C8.43799 3.61274 8.53737 3.79668 8.71427 3.93231C8.89117 4.06793 9.1311 4.14412 9.38127 4.14412Z" fill="url(#paint1_linear_4_2083)"/>
<path d="M19.9265 8.66182L16.2169 6.11036C16.1388 6.05555 16.0367 6.02515 15.9308 6.02515C15.8248 6.02515 15.7228 6.05555 15.6446 6.11036L10.536 9.80754C10.4194 9.89392 10.2636 9.94221 10.1015 9.94221C9.93934 9.94221 9.78353 9.89392 9.66694 9.80754L6.92188 7.84925C6.84547 7.795 6.74516 7.76486 6.64101 7.76486C6.53687 7.76486 6.43656 7.795 6.36015 7.84925L1.79211 10.937C1.67409 11.0149 1.52385 11.058 1.36816 11.0589C1.62087 11.3563 1.96656 11.6006 2.3738 11.7695C2.78103 11.9383 3.23688 12.0265 3.69988 12.0258H17.7007C18.0654 12.0258 18.4265 11.9708 18.7634 11.8638C19.1003 11.7568 19.4064 11.6 19.6643 11.4023C19.9221 11.2046 20.1267 10.9699 20.2662 10.7116C20.4058 10.4533 20.4776 10.1765 20.4776 9.89692V8.76745C20.3814 8.78446 20.2813 8.78375 20.1855 8.76539C20.0897 8.74703 20.0009 8.71154 19.9265 8.66182Z" fill="url(#paint2_linear_4_2083)"/>
<defs>
<linearGradient id="paint0_linear_4_2083" x1="10.6952" y1="-3.3513e-07" x2="16.8488" y2="45.0191" gradientUnits="userSpaceOnUse">
<stop stop-color="white"/>
<stop offset="1" stop-color="#A8A7AD"/>
</linearGradient>
<linearGradient id="paint1_linear_4_2083" x1="9.38127" y1="2.69775" x2="10.6363" y2="8.94491" gradientUnits="userSpaceOnUse">
<stop stop-color="white"/>
<stop offset="1" stop-color="#A8A7AD"/>
</linearGradient>
<linearGradient id="paint2_linear_4_2083" x1="10.9229" y1="6.02515" x2="13.1267" y2="32.8081" gradientUnits="userSpaceOnUse">
<stop stop-color="white"/>
<stop offset="1" stop-color="#A8A7AD"/>
</linearGradient>
</defs>
</svg>
