<svg width="22" height="15" viewBox="0 0 22 15" fill="none" xmlns="http://www.w3.org/2000/svg">
<rect width="22" height="15" fill="#F5F5F5"/>
<rect width="440" height="956" transform="translate(-45 -207)" fill="white"/>
<g clip-path="url(#clip0_0_1)">
<rect x="-21" y="-22" width="392" height="60" rx="30" fill="white" stroke="black" stroke-opacity="0.1"/>
<path fill-rule="evenodd" clip-rule="evenodd" d="M21.2307 2.37767L20.4117 1.62354L12.8162 8.59894C11.8674 9.46997 10.2712 9.46997 9.31972 8.59894L1.72687 1.66396L0.905273 2.4161L6.55935 7.60823L0.905273 12.8004L1.72687 13.5525L7.37793 8.36038L8.50115 9.39151C9.19243 10.0264 10.0969 10.3822 11.0458 10.3822C11.9972 10.3822 12.9017 10.0264 13.5934 9.39151L14.7136 8.36038L20.3677 13.5525L21.1863 12.8004L15.5352 7.60823L21.2307 2.37767Z" fill="#545454"/>
<path fill-rule="evenodd" clip-rule="evenodd" d="M2.54549 1.46575C2.19985 1.46575 1.94267 1.70432 1.94267 2.01976V13.1966C1.94267 13.512 2.19985 13.7506 2.54549 13.7506H19.5901C19.9362 13.7506 20.1955 13.512 20.1955 13.1966V2.01976C20.1955 1.70432 19.9362 1.46575 19.5901 1.46575H2.54549ZM19.6346 14.899H2.58993C1.59659 14.899 0.777588 14.1469 0.777588 13.235V2.06018C0.777588 1.14833 1.59659 0.396179 2.58993 0.396179H19.6346C20.6271 0.396179 21.4465 1.14833 21.4465 2.06018V13.235C21.4465 14.1469 20.6271 14.899 19.6346 14.899Z" fill="#545454"/>
</g>
<defs>
<clipPath id="clip0_0_1">
<rect x="-21" y="-22" width="392" height="60" rx="30" fill="white"/>
</clipPath>
</defs>
</svg>
