<svg width="32" height="32" viewBox="0 0 32 32" fill="none" xmlns="http://www.w3.org/2000/svg">
<path d="M26.0821 9.33333C26.387 7.59364 25.0482 6 23.2821 6H8.71701C6.95081 6 5.61213 7.59364 5.91696 9.33333" stroke="#FF586E" stroke-width="1.5"/>
<path d="M23.3332 6.00008C23.3711 5.65464 23.39 5.48188 23.3903 5.33921C23.3933 3.97437 22.3652 2.8276 21.0081 2.68197C20.8663 2.66675 20.6925 2.66675 20.3451 2.66675H11.6546C11.3071 2.66675 11.1334 2.66675 10.9915 2.68197C9.63445 2.8276 8.60641 3.97437 8.60938 5.3392C8.60969 5.48188 8.62861 5.65461 8.66643 6.00008" stroke="#FF586E" stroke-width="1.5"/>
<path d="M20 24H12" stroke="#FF586E" stroke-width="1.5" stroke-linecap="round"/>
<path d="M3.17785 18.3906C2.58314 14.1725 2.2858 12.0635 3.5496 10.6984C4.8134 9.33325 7.06328 9.33325 11.563 9.33325H20.4366C24.9364 9.33325 27.1862 9.33325 28.4501 10.6984C29.7138 12.0635 29.4165 14.1725 28.8218 18.3906L28.2578 22.3906C27.7914 25.6985 27.5584 27.3523 26.3621 28.3429C25.1658 29.3333 23.4014 29.3333 19.8726 29.3333H12.127C8.59825 29.3333 6.83388 29.3333 5.63762 28.3429C4.44137 27.3523 4.20818 25.6985 3.74181 22.3906L3.17785 18.3906Z" stroke="#FF586E" stroke-width="1.5"/>
</svg>
