<svg width="20" height="20" viewBox="0 0 20 20" fill="none" xmlns="http://www.w3.org/2000/svg">
<mask id="mask0_129_601" style="mask-type:luminance" maskUnits="userSpaceOnUse" x="0" y="5" width="5" height="10">
<path fill-rule="evenodd" clip-rule="evenodd" d="M0 5.40112H4.43237V14.7389H0V5.40112Z" fill="white"/>
</mask>
<g mask="url(#mask0_129_601)">
<path fill-rule="evenodd" clip-rule="evenodd" d="M4.43238 12.0861L3.73625 14.6851L1.19172 14.7389C0.431367 13.3285 0 11.7147 0 9.99995C0 8.34179 0.403281 6.77792 1.11816 5.40112H1.11863L3.38395 5.81628L4.37637 8.06804C4.16871 8.67366 4.05547 9.32354 4.05547 9.99995C4.05547 10.7341 4.18855 11.4373 4.43238 12.0861Z" fill="#FBBB00"/>
</g>
<mask id="mask1_129_601" style="mask-type:luminance" maskUnits="userSpaceOnUse" x="10" y="8" width="10" height="10">
<path fill-rule="evenodd" clip-rule="evenodd" d="M10.2197 8.13184H19.9998V17.7983H10.2197V8.13184Z" fill="white"/>
</mask>
<g mask="url(#mask1_129_601)">
<path fill-rule="evenodd" clip-rule="evenodd" d="M19.8251 8.13184C19.94 8.73668 19.9998 9.36152 19.9998 9.99996C19.9998 10.7159 19.9246 11.4143 19.7812 12.0878C19.2944 14.3802 18.0225 16.3818 16.2604 17.7983L16.2598 17.7978L13.4065 17.6523L13.0026 15.1313C14.1719 14.4456 15.0856 13.3725 15.567 12.0878H10.2197V8.13184H19.8251Z" fill="#518EF8"/>
</g>
<path fill-rule="evenodd" clip-rule="evenodd" d="M16.2601 17.7978L16.2606 17.7983C14.5469 19.1758 12.3699 20 10.0002 20C6.19189 20 2.88088 17.8714 1.19189 14.739L4.43256 12.0863C5.27713 14.34 7.45119 15.9445 10.0002 15.9445C11.0958 15.9445 12.1222 15.6483 13.0029 15.1313L16.2601 17.7978Z" fill="#28B446"/>
<path fill-rule="evenodd" clip-rule="evenodd" d="M16.3829 2.30227L13.1434 4.95437C12.2319 4.38461 11.1543 4.05547 10 4.05547C7.39336 4.05547 5.17848 5.73348 4.37637 8.06809L1.11863 5.40117H1.11816C2.78242 2.19223 6.13512 0 10 0C12.4263 0 14.651 0.864258 16.3829 2.30227Z" fill="#F14336"/>
</svg>
