<svg width="22" height="15" viewBox="0 0 22 15" fill="none" xmlns="http://www.w3.org/2000/svg">
<path fill-rule="evenodd" clip-rule="evenodd" d="M20.9327 2.37767L20.1011 1.62354L12.3894 8.59894C11.426 9.46997 9.80543 9.46997 8.83938 8.59894L1.13031 1.66396L0.296143 2.4161L6.03676 7.60823L0.296143 12.8004L1.13031 13.5525L6.86787 8.36038L8.00828 9.39151C8.71014 10.0264 9.62843 10.3822 10.5918 10.3822C11.5579 10.3822 12.4762 10.0264 13.1785 9.39151L14.3158 8.36038L20.0564 13.5525L20.8875 12.8004L15.15 7.60823L20.9327 2.37767Z" fill="#167F71"/>
<path fill-rule="evenodd" clip-rule="evenodd" d="M1.96146 1.46575C1.61053 1.46575 1.34941 1.70432 1.34941 2.01976V13.1966C1.34941 13.512 1.61053 13.7506 1.96146 13.7506H19.267C19.6184 13.7506 19.8817 13.512 19.8817 13.1966V2.01976C19.8817 1.70432 19.6184 1.46575 19.267 1.46575H1.96146ZM19.3121 14.899H2.00659C0.998046 14.899 0.166504 14.1469 0.166504 13.235V2.06018C0.166504 1.14833 0.998046 0.396179 2.00659 0.396179H19.3121C20.3198 0.396179 21.1518 1.14833 21.1518 2.06018V13.235C21.1518 14.1469 20.3198 14.899 19.3121 14.899Z" fill="#167F71"/>
</svg>
