<svg width="16" height="18" viewBox="0 0 16 18" fill="none" xmlns="http://www.w3.org/2000/svg">
<path d="M15.1111 5.45515L9.77779 0.779632C9.28889 0.342342 8.65596 0.100586 8.00003 0.100586C7.34409 0.100586 6.71117 0.342342 6.22226 0.779632L0.888967 5.45515C0.60663 5.70766 0.381326 6.01742 0.228058 6.36381C0.0747893 6.7102 -0.0029267 7.08526 8.42608e-05 7.46403V15.2329C8.42608e-05 15.9401 0.281034 16.6184 0.781127 17.1185C1.28122 17.6186 1.95949 17.8995 2.66673 17.8995H13.3333C14.0406 17.8995 14.7188 17.6186 15.2189 17.1185C15.719 16.6184 16 15.9401 16 15.2329V7.45514C16.0017 7.07787 15.9234 6.70451 15.7702 6.35975C15.6169 6.01499 15.3923 5.70667 15.1111 5.45515ZM9.77779 16.1217H6.22226V11.6773C6.22226 11.4416 6.31591 11.2155 6.48261 11.0488C6.64931 10.8821 6.8754 10.7884 7.11114 10.7884H8.88891C9.12466 10.7884 9.35075 10.8821 9.51744 11.0488C9.68414 11.2155 9.77779 11.4416 9.77779 11.6773V16.1217ZM14.2222 15.2329C14.2222 15.4686 14.1286 15.6947 13.9619 15.8614C13.7952 16.0281 13.5691 16.1217 13.3333 16.1217H11.5556V11.6773C11.5556 10.9701 11.2746 10.2918 10.7745 9.79173C10.2744 9.29163 9.59615 9.01068 8.88891 9.01068H7.11114C6.40391 9.01068 5.72563 9.29163 5.22554 9.79173C4.72545 10.2918 4.4445 10.9701 4.4445 11.6773V16.1217H2.66673C2.43099 16.1217 2.2049 16.0281 2.0382 15.8614C1.8715 15.6947 1.77785 15.4686 1.77785 15.2329V7.45514C1.77801 7.32893 1.80504 7.20421 1.85715 7.08926C1.90926 6.97431 1.98525 6.87178 2.08007 6.78848L7.41336 2.12184C7.57558 1.97934 7.78411 1.90075 8.00003 1.90075C8.21594 1.90075 8.42448 1.97934 8.58669 2.12184L13.92 6.78848C14.0148 6.87178 14.0908 6.97431 14.1429 7.08926C14.195 7.20421 14.222 7.32893 14.2222 7.45514V15.2329Z" fill="black"/>
</svg>
