<svg width="75" height="81" viewBox="0 0 75 81" fill="none" xmlns="http://www.w3.org/2000/svg">
<path d="M22.859 26.5927H5.53336C2.48275 26.5927 0 29.5928 0 33.2838V73.3389C0 77.0299 2.48275 80.03 5.53336 80.03H22.859C25.9096 80.03 28.3924 77.0299 28.3924 73.3389V33.2838C28.3924 29.5966 25.9096 26.5927 22.859 26.5927ZM75 36.3374C75 30.2761 68.2773 26.5927 65.3277 26.5927H52.0337C54.2894 14.7029 51.5637 7.91636 49.6456 4.84753C47.7465 1.81305 45.1281 0 42.639 0C40.7052 0 39.0395 1.1031 38.0868 3.03829C37.9408 3.3351 37.8635 3.67389 37.8628 4.01925V14.2716C35.9542 20.936 34.0898 26.1461 31.5534 30.0928V75.8161C32.1496 76.0565 32.7238 76.2207 33.1938 76.2207H62.3023C63.6714 76.2207 65.0027 75.3581 66.1794 73.7435C67.8073 71.4838 68.8956 68.0028 68.9367 65.1477C71.2964 63.0026 72.4194 59.0864 72.2112 53.6969C74.7508 50.5059 74.593 45.9752 73.7665 43.1773C74.8044 41.3834 75 38.3413 75 36.3374Z" fill="#FF586E"/>
</svg>
