<svg width="24" height="24" viewBox="0 0 24 24" fill="none" xmlns="http://www.w3.org/2000/svg">
<path d="M11.7006 10.4592C11.6044 10.4496 11.4889 10.4496 11.383 10.4592C9.09299 10.3823 7.27441 8.50595 7.27441 6.19665C7.27441 3.83924 9.17959 1.92444 11.5466 1.92444C13.904 1.92444 15.8188 3.83924 15.8188 6.19665C15.8092 8.50595 13.9906 10.3823 11.7006 10.4592Z" stroke="#545454" stroke-width="1.44331" stroke-linecap="round" stroke-linejoin="round"/>
<path d="M6.88948 14.0098C4.56093 15.5686 4.56093 18.1088 6.88948 19.6579C9.53555 21.4284 13.8751 21.4284 16.5212 19.6579C18.8497 18.0992 18.8497 15.5589 16.5212 14.0098C13.8847 12.2489 9.54517 12.2489 6.88948 14.0098Z" stroke="#545454" stroke-width="1.44331" stroke-linecap="round" stroke-linejoin="round"/>
</svg>
