<svg width="16" height="20" viewBox="0 0 16 20" fill="none" xmlns="http://www.w3.org/2000/svg">
<path fill-rule="evenodd" clip-rule="evenodd" d="M14.2156 8.44857H12.8788V5.83755C12.8788 3.30694 10.6051 1.22449 7.84336 1.22449C5.08122 1.22449 2.80744 3.30694 2.80744 5.83755V8.44857H1.4707V5.83755C1.4707 2.61143 4.32419 0 7.84336 0C11.3625 0 14.2156 2.61143 14.2156 5.83755V8.44857Z" fill="#545454"/>
<path fill-rule="evenodd" clip-rule="evenodd" d="M2.13922 9.10265C1.73954 9.10265 1.42763 9.38796 1.42763 9.75449V17.5924C1.42763 17.9594 1.73954 18.2447 2.13922 18.2447H13.5474C13.947 18.2447 14.2585 17.9594 14.2585 17.5924V9.75449C14.2585 9.38796 13.947 9.10265 13.5474 9.10265H2.13922ZM13.5474 19.5504H2.13922C0.982055 19.5504 0 18.6529 0 17.5924V9.75449C0 8.69449 0.982055 7.79694 2.13922 7.79694H13.5474C14.7041 7.79694 15.6861 8.69449 15.6861 9.75449V17.5924C15.6861 18.6945 14.7041 19.5504 13.5474 19.5504Z" fill="#545454"/>
<path fill-rule="evenodd" clip-rule="evenodd" d="M9.26858 11.7141C9.26858 12.4492 8.6461 13.0198 7.84317 13.0198C7.04069 13.0198 6.41821 12.4492 6.41821 11.7141C6.41821 10.979 7.04069 10.4084 7.84317 10.4084C8.6461 10.4084 9.26858 11.0206 9.26858 11.7141Z" fill="#545454"/>
<path fill-rule="evenodd" clip-rule="evenodd" d="M8.20031 11.7141H7.48605L6.7749 15.6333H8.9119L8.20031 11.7141Z" fill="#545454"/>
</svg>
