<svg width="19" height="19" viewBox="0 0 19 19" fill="none" xmlns="http://www.w3.org/2000/svg">
<ellipse cx="2.46358" cy="2.46358" rx="2.46358" ry="2.46358" transform="matrix(-1 0 0 1 11.7681 6.74829)" stroke="black" stroke-width="1.5"/>
<path d="M12.9997 15.0113L12.6247 14.3618L12.9997 15.0113ZM5.60895 15.0113L5.98395 14.3618L5.60895 15.0113ZM5.60896 3.41226L5.23396 2.76274L5.23396 2.76274L5.60896 3.41226ZM3.9104 3.69773L3.76798 4.43408L3.9104 3.69773ZM1.92505 11.0379L2.4287 11.5936L1.92505 11.0379ZM11.8558 16.4927L11.1326 16.2942L11.8558 16.4927ZM11.2275 17.1974L11.0525 16.4681L11.2275 17.1974ZM15.6078 14.4755L15.0324 13.9945L15.6078 14.4755ZM14.6984 14.7259L14.5559 15.4622L14.6984 14.7259ZM3.91026 14.7259L4.05272 15.4622L3.91026 14.7259ZM3.00079 14.4755L2.42536 14.9565L3.00079 14.4755ZM1.92505 7.38599L1.42139 7.94172L1.92505 7.38599ZM17.5153 9.08869L16.7654 9.09973L17.5153 9.08869ZM7.38121 17.1975L7.55621 16.4682L7.38121 17.1975ZM6.75286 16.4927L7.47611 16.2942L6.75286 16.4927ZM11.8559 1.93111L11.1327 2.12968L11.8559 1.93111ZM11.2276 1.22647L11.0526 1.95576L11.2276 1.22647ZM11.1327 2.12968C11.3484 2.91528 11.8627 3.62178 12.6247 4.06177L13.3747 2.76274C12.9681 2.52793 12.6946 2.15307 12.5791 1.73253L11.1327 2.12968ZM13.3391 5.92716C13.3391 5.50753 13.4889 5.12486 13.7389 4.82684L12.5897 3.86284C12.1216 4.42089 11.8391 5.14201 11.8391 5.92716H13.3391ZM15.0526 7.64074C14.1063 7.64074 13.3391 6.87355 13.3391 5.92716H11.8391C11.8391 7.70197 13.2778 9.14074 15.0526 9.14074V7.64074ZM15.4922 7.58402C15.3528 7.62089 15.2056 7.64074 15.0526 7.64074V9.14074C15.3361 9.14074 15.6121 9.10386 15.8755 9.03422L15.4922 7.58402ZM18.2662 9.21194C18.2662 9.16711 18.2659 9.12235 18.2652 9.07766L16.7654 9.09973C16.766 9.13706 16.7662 9.17446 16.7662 9.21194H18.2662ZM16.1832 14.9565C17.4832 13.4014 18.2662 11.3971 18.2662 9.21194H16.7662C16.7662 11.0325 16.1152 12.6991 15.0324 13.9945L16.1832 14.9565ZM13.3747 15.6608C13.747 15.4459 14.1645 15.3865 14.5559 15.4622L14.8408 13.9895C14.1083 13.8478 13.3215 13.9595 12.6247 14.3618L13.3747 15.6608ZM12.5791 16.6912C12.6945 16.2706 12.968 15.8957 13.3747 15.6608L12.6247 14.3618C11.8625 14.8019 11.3482 15.5085 11.1326 16.2942L12.5791 16.6912ZM9.30429 18.1739C10.026 18.1739 10.7287 18.0884 11.4025 17.9267L11.0525 16.4681C10.4925 16.6025 9.9072 16.6739 9.30429 16.6739V18.1739ZM7.20622 17.9268C7.87997 18.0884 8.58265 18.1739 9.30429 18.1739V16.6739C8.70141 16.6739 8.11619 16.6025 7.55621 16.4682L7.20622 17.9268ZM5.23395 15.6608C5.6407 15.8957 5.91417 16.2706 6.02961 16.6912L7.47611 16.2942C7.26046 15.5085 6.74615 14.8019 5.98395 14.3618L5.23395 15.6608ZM4.05272 15.4622C4.4441 15.3865 4.86164 15.4459 5.23395 15.6608L5.98395 14.3618C5.2871 13.9595 4.50029 13.8478 3.7678 13.9895L4.05272 15.4622ZM0.88398 12.2868C1.24272 13.2689 1.76806 14.1702 2.42536 14.9565L3.57623 13.9945C3.02833 13.339 2.59118 12.5887 2.29293 11.7721L0.88398 12.2868ZM1.98477 9.21194C1.98477 9.71554 1.76848 10.1676 1.42139 10.4822L2.4287 11.5936C3.0763 11.0067 3.48477 10.1565 3.48477 9.21194H1.98477ZM1.42139 7.94172C1.76848 8.25629 1.98477 8.70833 1.98477 9.21194H3.48477C3.48477 8.26738 3.0763 7.41719 2.4287 6.83027L1.42139 7.94172ZM2.42561 3.46707C1.76819 4.25345 1.24276 5.15482 0.88398 6.13709L2.29293 6.65173C2.59122 5.83509 3.02844 5.08465 3.57643 4.42915L2.42561 3.46707ZM5.23396 2.76274C4.86167 2.97768 4.44416 3.03706 4.05281 2.96137L3.76798 4.43408C4.50042 4.57574 5.28716 4.46407 5.98396 4.06177L5.23396 2.76274ZM6.02957 1.73251C5.91411 2.15306 5.64065 2.52793 5.23396 2.76274L5.98396 4.06177C6.74607 3.62177 7.26035 2.91527 7.47604 2.12966L6.02957 1.73251ZM9.30429 0.25C8.58262 0.25 7.87992 0.335453 7.20614 0.497133L7.55614 1.95573C8.11614 1.82135 8.70139 1.75 9.30429 1.75V0.25ZM11.4026 0.497172C10.7288 0.335468 10.026 0.25 9.30429 0.25V1.75C9.90724 1.75 10.4925 1.82136 11.0526 1.95576L11.4026 0.497172ZM7.47604 2.12966C7.49781 2.05036 7.52925 1.99555 7.55315 1.96691C7.5737 1.9423 7.57549 1.95108 7.55614 1.95573L7.20614 0.497133C6.50343 0.665754 6.15584 1.27261 6.02957 1.73251L7.47604 2.12966ZM3.57643 4.42915C3.56386 4.44419 3.55703 4.43862 3.58823 4.4311C3.62449 4.42237 3.68744 4.41851 3.76798 4.43408L4.05281 2.96137C3.58469 2.87084 2.88818 2.91375 2.42561 3.46707L3.57643 4.42915ZM2.29293 11.7721C2.3007 11.7934 2.28964 11.7979 2.30317 11.7624C2.31921 11.7203 2.3593 11.6565 2.4287 11.5936L1.42139 10.4822C1.03184 10.8352 0.603258 11.5182 0.88398 12.2868L2.29293 11.7721ZM11.1326 16.2942C11.1108 16.3735 11.0794 16.4283 11.0554 16.457C11.0349 16.4816 11.0331 16.4728 11.0525 16.4681L11.4025 17.9267C12.1052 17.7581 12.4528 17.1512 12.5791 16.6912L11.1326 16.2942ZM15.0324 13.9945C15.045 13.9794 15.0518 13.985 15.0206 13.9925C14.9843 14.0012 14.9213 14.0051 14.8408 13.9895L14.5559 15.4622C15.0241 15.5528 15.7207 15.5099 16.1832 14.9565L15.0324 13.9945ZM3.7678 13.9895C3.68725 14.0051 3.6243 14.0013 3.58803 13.9925C3.55682 13.985 3.56365 13.9794 3.57623 13.9945L2.42536 14.9565C2.88796 15.5099 3.58455 15.5528 4.05272 15.4622L3.7678 13.9895ZM12.6247 4.06177C12.537 4.01114 12.5067 3.95448 12.5059 3.95306C12.5026 3.94714 12.5084 3.95657 12.5124 3.97909C12.5163 4.00161 12.5142 4.01242 12.5152 4.00572C12.5155 4.0041 12.5246 3.94045 12.5897 3.86284L13.7389 4.82684C14.0426 4.46479 14.0388 3.99749 13.9895 3.71841C13.9403 3.43932 13.7839 2.99899 13.3747 2.76274L12.6247 4.06177ZM2.4287 6.83027C2.3593 6.76737 2.31921 6.70362 2.30317 6.6615C2.28964 6.62595 2.3007 6.63047 2.29293 6.65173L0.88398 6.13709C0.603258 6.90565 1.03184 7.58867 1.42139 7.94172L2.4287 6.83027ZM15.8755 9.03422C16.0835 8.97926 16.3868 8.98666 16.6147 9.06532C16.724 9.10302 16.7718 9.14206 16.7834 9.1541C16.7836 9.15426 16.7658 9.12847 16.7654 9.09973L18.2652 9.07766C18.253 8.24457 17.5939 7.81641 17.104 7.64737C16.5948 7.47165 15.9878 7.45305 15.4922 7.58402L15.8755 9.03422ZM7.55621 16.4682C7.57556 16.4728 7.57377 16.4816 7.55322 16.457C7.52931 16.4283 7.49788 16.3735 7.47611 16.2942L6.02961 16.6912C6.15585 17.1512 6.50343 17.7581 7.20622 17.9268L7.55621 16.4682ZM12.5791 1.73253C12.4529 1.27264 12.1053 0.665802 11.4026 0.497172L11.0526 1.95576C11.0332 1.95112 11.035 1.94234 11.0556 1.96694C11.0795 1.99558 11.1109 2.05039 11.1327 2.12968L12.5791 1.73253Z" fill="black"/>
</svg>
