<svg width="27" height="32" viewBox="0 0 27 32" fill="none" xmlns="http://www.w3.org/2000/svg">
<path fill-rule="evenodd" clip-rule="evenodd" d="M17.3333 0H4C2.94011 0.00316545 1.92453 0.425609 1.17507 1.17507C0.425609 1.92453 0.00316545 2.94011 0 4L0 22.6533C0.00316545 23.7132 0.425609 24.7288 1.17507 25.4783C1.92453 26.2277 2.94011 26.6502 4 26.6533H17.3333C18.3932 26.6502 19.4088 26.2277 20.1583 25.4783C20.9077 24.7288 21.3302 23.7132 21.3333 22.6533V4C21.3302 2.94011 20.9077 1.92453 20.1583 1.17507C19.4088 0.425609 18.3932 0.00316545 17.3333 0ZM18.6667 22.6533C18.6612 23.0052 18.5189 23.3412 18.2701 23.5901C18.0212 23.8389 17.6852 23.9812 17.3333 23.9867H4C3.64809 23.9812 3.31214 23.8389 3.06327 23.5901C2.81441 23.3412 2.67217 23.0052 2.66667 22.6533V4C2.67217 3.64809 2.81441 3.31214 3.06327 3.06327C3.31214 2.81441 3.64809 2.67217 4 2.66667H17.3333C18.0653 2.67867 18.6547 3.268 18.6667 4V22.6533Z" fill="#FF586E"/>
<path fill-rule="evenodd" clip-rule="evenodd" d="M26.6668 9.33333V28C26.6637 29.0599 26.2412 30.0755 25.4918 30.8249C24.7423 31.5744 23.7267 31.9968 22.6668 32H6.66683C6.31321 32 5.97407 31.8595 5.72402 31.6095C5.47397 31.3594 5.3335 31.0203 5.3335 30.6667C5.3335 30.313 5.47397 29.9739 5.72402 29.7239C5.97407 29.4738 6.31321 29.3333 6.66683 29.3333H22.6668C23.0187 29.3278 23.3547 29.1856 23.6036 28.9367C23.8524 28.6879 23.9947 28.3519 24.0002 28V9.33333C24.0002 8.97971 24.1406 8.64057 24.3907 8.39052C24.6407 8.14048 24.9799 8 25.3335 8C25.6871 8 26.0263 8.14048 26.2763 8.39052C26.5264 8.64057 26.6668 8.97971 26.6668 9.33333Z" fill="#FF586E"/>
<path d="M10.6668 21.3334C11.4032 21.3334 12.0002 20.7365 12.0002 20.0001C12.0002 19.2637 11.4032 18.6667 10.6668 18.6667C9.93045 18.6667 9.3335 19.2637 9.3335 20.0001C9.3335 20.7365 9.93045 21.3334 10.6668 21.3334Z" fill="#FF586E"/>
<path fill-rule="evenodd" clip-rule="evenodd" d="M16.0002 10.6666C16.0011 11.8487 15.6085 12.9976 14.8842 13.9319C14.1599 14.8662 13.1452 15.5328 12.0002 15.8266V15.9999C12.0002 16.3535 11.8597 16.6927 11.6096 16.9427C11.3596 17.1928 11.0205 17.3333 10.6668 17.3333C10.3132 17.3333 9.97407 17.1928 9.72402 16.9427C9.47397 16.6927 9.3335 16.3535 9.3335 15.9999V14.6666C9.3335 14.313 9.47397 13.9738 9.72402 13.7238C9.97407 13.4737 10.3132 13.3333 10.6668 13.3333C11.1942 13.3333 11.7098 13.1769 12.1483 12.8838C12.5869 12.5908 12.9287 12.1743 13.1305 11.6871C13.3323 11.1998 13.3852 10.6636 13.2823 10.1463C13.1794 9.62906 12.9254 9.15391 12.5524 8.78097C12.1795 8.40803 11.7044 8.15405 11.1871 8.05116C10.6698 7.94826 10.1336 8.00107 9.64634 8.20291C9.15907 8.40474 8.74259 8.74653 8.44958 9.18506C8.15656 9.6236 8.00016 10.1392 8.00016 10.6666C8.00016 11.0202 7.85969 11.3593 7.60964 11.6094C7.35959 11.8594 7.02045 11.9999 6.66683 11.9999C6.31321 11.9999 5.97407 11.8594 5.72402 11.6094C5.47397 11.3593 5.3335 11.0202 5.3335 10.6666C5.3335 9.2521 5.8954 7.89554 6.89559 6.89535C7.89579 5.89515 9.25234 5.33325 10.6668 5.33325C12.0813 5.33325 13.4379 5.89515 14.4381 6.89535C15.4383 7.89554 16.0002 9.2521 16.0002 10.6666Z" fill="#FF586E"/>
</svg>
